HIERARCHY
ROOT Hips
{
 OFFSET 0.000000 0.000000 0.000000
 CHANNELS 6 Xposition Yposition Zposition Yrotation Xrotation Zrotation
 JOINT Chest
 {
  OFFSET 0.000000 10.383400 0.001500
  CHANNELS 3 Yrotation Xrotation Zrotation
  JOINT Chest2
  {
   OFFSET 0.000000 10.418200 -0.003100
   CHANNELS 3 Yrotation Xrotation Zrotation
   JOINT Chest3
   {
    OFFSET 0.000000 10.375100 0.000000
    CHANNELS 3 Yrotation Xrotation Zrotation
    JOINT Chest4
    {
     OFFSET 0.000000 10.364600 0.000000
     CHANNELS 3 Yrotation Xrotation Zrotation
     JOINT Neck
     {
      OFFSET 0.000000 15.642200 0.000000
      CHANNELS 3 Yrotation Xrotation Zrotation
      JOINT Head
      {
       OFFSET 0.000000 9.697300 -0.006500
       CHANNELS 3 Yrotation Xrotation Zrotation
       End Site
       {
        OFFSET 0.000000 18.492200 -0.003400
       }
      }
     }
     JOINT RightCollar
     {
      OFFSET -3.166800 10.349300 0.000000
      CHANNELS 3 Yrotation Xrotation Zrotation
      JOINT RightShoulder
      {
       OFFSET -14.729700 0.000000 0.000000
       CHANNELS 3 Yrotation Xrotation Zrotation
       JOINT RightElbow
       {
        OFFSET 0.000000 -32.224300 0.000000
        CHANNELS 3 Yrotation Xrotation Zrotation
        JOINT RightWrist
        {
         OFFSET 0.000000 -26.084100 0.000000
         CHANNELS 3 Yrotation Xrotation Zrotation
         End Site
         {
          OFFSET 0.000000 -19.319400 0.000000
         }
        }
       }
      }
     }
     JOINT LeftCollar
     {
      OFFSET 3.166800 10.349300 0.000000
      CHANNELS 3 Yrotation Xrotation Zrotation
      JOINT LeftShoulder
      {
       OFFSET 14.729700 0.000000 0.000000
       CHANNELS 3 Yrotation Xrotation Zrotation
       JOINT LeftElbow
       {
        OFFSET 0.000000 -32.224300 0.000000
        CHANNELS 3 Yrotation Xrotation Zrotation
        JOINT LeftWrist
        {
         OFFSET 0.000000 -26.084100 0.000000
         CHANNELS 3 Yrotation Xrotation Zrotation
         End Site
         {
          OFFSET 0.000000 -19.319400 0.000000
         }
        }
       }
      }
     }
    }
   }
  }
 }
 JOINT RightHip
 {
  OFFSET -8.428900 -0.007500 -0.000800
  CHANNELS 3 Yrotation Xrotation Zrotation
  JOINT RightKnee
  {
   OFFSET 0.000000 -43.834600 0.000700
   CHANNELS 3 Yrotation Xrotation Zrotation
   JOINT RightAnkle
   {
    OFFSET 0.000000 -42.757000 0.001200
    CHANNELS 3 Yrotation Xrotation Zrotation
    JOINT RightToe
    {
     OFFSET 0.000000 -6.946900 15.649300
     CHANNELS 3 Yrotation Xrotation Zrotation
     End Site
     {
      OFFSET 0.000000 -1.580800 6.825800
     }
    }
   }
  }
 }
 JOINT LeftHip
 {
  OFFSET 8.428900 -0.007500 -0.000800
  CHANNELS 3 Yrotation Xrotation Zrotation
  JOINT LeftKnee
  {
   OFFSET 0.000000 -43.834600 0.000700
   CHANNELS 3 Yrotation Xrotation Zrotation
   JOINT LeftAnkle
   {
    OFFSET 0.000000 -42.757000 0.001200
    CHANNELS 3 Yrotation Xrotation Zrotation
    JOINT LeftToe
    {
     OFFSET 0.000000 -6.946900 15.649300
     CHANNELS 3 Yrotation Xrotation Zrotation
     End Site
     {
      OFFSET 0.000000 -1.580800 6.825800
     }
    }
   }
  }
 }
}
MOTION
Frames: 13
Frame Time: 0.008333
129.904922 127.199321 4.885173 -13.675141 -34.737174 -3.249094 -3.610710 18.792420 2.167243 -0.465441 2.237150 0.319145 -0.755710 3.682172 0.514857 -3.152352 16.259568 1.941761 2.350468 15.361289 -1.733729 5.045995 -7.170737 -4.104691 9.443711 -10.201309 -12.054889 6.629118 -27.242645 0.537336 17.753551 -26.730480 -20.163604 4.786747 -7.826985 -16.318854 -6.455306 -8.556326 3.045176 -4.939683 -22.941046 -0.151628 -19.333349 -43.114151 28.297605 -23.203869 -6.751355 28.604926 -0.381911 -34.702677 0.514492 -19.267715 64.144100 -17.990192 2.139293 11.150105 9.563983 0.010710 -0.003411 0.004754 -6.582661 -27.148109 -9.433503 2.839520 59.627084 0.555006 -14.215196 5.911817 -3.368797 -0.000632 -0.000153 -0.000281
129.906009 127.198946 4.884477 -13.669146 -34.737750 -3.261091 -3.607670 18.786859 2.174610 -0.468651 2.242101 0.321563 -0.751345 3.673382 0.514085 -3.149545 16.254840 1.947676 2.350484 15.363339 -1.736443 5.053629 -7.216671 -4.111235 9.385437 -10.156673 -12.028343 6.666220 -27.257894 0.520447 17.716617 -26.820390 -20.200694 4.790594 -7.822757 -16.351798 -6.426099 -8.526824 3.025023 -4.932362 -22.925152 -0.151795 -19.351910 -43.134630 28.327052 -23.194325 -6.761481 28.569010 -0.298967 -34.702336 0.460599 -19.305745 64.145001 -17.950870 2.145521 11.147438 9.575174 0.005501 -0.009445 0.002442 -6.583221 -27.146665 -9.426415 2.847511 59.622299 0.556400 -14.230388 5.919564 -3.362764 -0.000813 0.000524 -0.000361
129.907643 127.198497 4.883827 -13.666628 -34.736651 -3.267524 -3.605738 18.778633 2.178263 -0.463382 2.241476 0.321366 -0.755934 3.669344 0.516573 -3.148530 16.248793 1.954605 2.355461 15.358517 -1.742860 5.061843 -7.245591 -4.115317 9.335161 -10.110078 -12.007565 6.657558 -27.240963 0.545960 17.691127 -26.939606 -20.247522 4.789231 -7.793168 -16.352801 -6.396092 -8.494133 2.997145 -4.902041 -22.886426 -0.159531 -19.386544 -43.178294 28.349938 -23.192356 -6.765256 28.532225 -0.280876 -34.702609 0.449128 -19.245959 64.149044 -17.877572 2.121014 11.149701 9.580312 0.005824 -0.010113 0.002585 -6.560540 -27.144967 -9.431601 2.832279 59.618138 0.553404 -14.236810 5.925523 -3.367225 -0.000455 0.000221 -0.000202
129.908989 127.198400 4.883500 -13.662989 -34.737586 -3.275173 -3.606080 18.776117 2.183377 -0.458131 2.225523 0.320672 -0.759717 3.679559 0.518609 -3.149496 16.248918 1.957842 2.360879 15.337955 -1.742308 5.065515 -7.245431 -4.119526 9.294691 -10.075952 -11.978758 6.637566 -27.223846 0.582819 17.639267 -27.056479 -20.289834 4.787774 -7.741293 -16.325274 -6.363604 -8.471003 2.967182 -4.897495 -22.864417 -0.161968 -19.331431 -43.194109 28.367263 -23.224163 -6.807848 28.459063 -0.264728 -34.700822 0.438618 -19.244144 64.148960 -17.856822 2.119493 11.148373 9.582924 0.005761 -0.008718 0.002557 -6.548040 -27.142553 -9.434975 2.825427 59.614894 0.554104 -14.228431 5.929084 -3.381897 0.000212 -0.000200 0.000094
129.910110 127.198575 4.883329 -13.651468 -34.739663 -3.287946 -3.611448 18.775093 2.189868 -0.448352 2.219048 0.320412 -0.770194 3.686648 0.519903 -3.147087 16.242423 1.961735 2.369811 15.310626 -1.741358 5.064031 -7.242971 -4.121029 9.207383 -10.038469 -11.906682 6.693434 -27.229416 0.573469 17.543765 -27.164922 -20.318567 4.783428 -7.670492 -16.274776 -6.331932 -8.449791 2.933805 -4.906415 -22.847443 -0.159726 -19.309197 -43.207765 28.376401 -23.228297 -6.811465 28.404939 -0.234685 -34.699027 0.410478 -19.226894 64.151302 -17.800993 2.110844 11.155640 9.582947 0.004319 -0.012251 0.001917 -6.549818 -27.141354 -9.435078 2.822268 59.613200 0.557464 -14.232424 5.933490 -3.387822 0.000084 0.000182 0.000037
129.911664 127.198867 4.883313 -13.645659 -34.742810 -3.294800 -3.586648 18.760704 2.197034 -0.460512 2.227458 0.320878 -0.769899 3.681885 0.526551 -3.143859 16.238523 1.964188 2.370878 15.288519 -1.738869 5.084989 -7.351809 -4.116877 9.153823 -10.013196 -11.873007 6.692331 -27.216092 0.606159 17.432412 -27.267661 -20.343229 4.773342 -7.591160 -16.213270 -6.317013 -8.421645 2.904034 -4.912193 -22.831213 -0.158433 -19.276561 -43.216440 28.370736 -23.231833 -6.811992 28.353627 -0.200291 -34.689860 0.376040 -19.206884 64.146606 -17.737043 2.104393 11.157682 9.580408 0.003418 -0.010649 0.001517 -6.554828 -27.141410 -9.437715 2.831436 59.611928 0.570082 -14.236641 5.936892 -3.393541 -0.001224 -0.000404 -0.000543
129.912726 127.199380 4.883300 -13.640691 -34.747711 -3.303928 -3.576879 18.761727 2.200756 -0.455623 2.224853 0.318184 -0.768873 3.677649 0.530149 -3.135847 16.235378 1.965807 2.373926 15.261880 -1.730690 5.094424 -7.427037 -4.097554 9.117611 -9.998623 -11.849762 6.668351 -27.199792 0.653752 17.321352 -27.360051 -20.367897 4.760954 -7.516034 -16.154640 -6.308305 -8.397877 2.884845 -4.912083 -22.813235 -0.160938 -19.236224 -43.218403 28.349696 -23.231190 -6.807972 28.308164 -0.195237 -34.678111 0.363466 -19.182087 64.141982 -17.697337 2.109512 11.154952 9.586807 0.000483 -0.007939 0.000214 -6.568648 -27.139885 -9.432732 2.834302 59.608646 0.572034 -14.234101 5.941395 -3.399055 -0.001435 -0.000775 -0.000637
129.913091 127.200122 4.883271 -13.637866 -34.754720 -3.315760 -3.571447 18.768254 2.209890 -0.445252 2.218502 0.310321 -0.762229 3.678997 0.530758 -3.094810 16.224585 1.961036 2.353068 15.239769 -1.701620 5.094242 -7.483056 -4.071809 8.943672 -9.962793 -11.730638 6.788412 -27.230537 0.602550 17.196202 -27.443052 -20.379493 4.754508 -7.458859 -16.114438 -6.334885 -8.374839 2.885247 -4.911065 -22.792781 -0.168012 -19.194282 -43.212403 28.321735 -23.226427 -6.795909 28.272962 -0.207278 -34.665965 0.366748 -19.153660 64.139525 -17.667559 2.112206 11.152027 9.593143 -0.002187 -0.006611 -0.000971 -6.586994 -27.137014 -9.420951 2.842369 59.607466 0.578272 -14.238217 5.943454 -3.407138 -0.001945 -0.000902 -0.000863
129.914249 127.200354 4.882676 -13.635923 -34.757433 -3.323452 -3.557664 18.763774 2.209973 -0.445931 2.216732 0.311974 -0.756762 3.679556 0.529218 -3.083691 16.221154 1.969778 2.356355 15.213416 -1.693906 5.098745 -7.533959 -4.046515 8.863539 -9.943262 -11.680885 6.837468 -27.238785 0.594125 17.087330 -27.524254 -20.403840 4.756122 -7.427608 -16.101431 -6.323573 -8.362199 2.860876 -4.908311 -22.771852 -0.180061 -19.159275 -43.201094 28.294775 -23.222611 -6.774107 28.246626 -0.224706 -34.657608 0.369980 -19.120107 64.137208 -17.638549 2.111985 11.143751 9.612788 -0.003075 -0.005663 -0.001365 -6.606847 -27.138171 -9.421240 2.860220 59.605654 0.602950 -14.214673 5.937490 -3.419902 0.001448 -0.001448 0.000643
129.915059 127.200732 4.882163 -13.635453 -34.761972 -3.331363 -3.545432 18.760293 2.210221 -0.447363 2.214304 0.316536 -0.750544 3.679725 0.526056 -3.077828 16.216305 1.980696 2.388197 15.150900 -1.680348 5.084494 -7.541748 -4.022726 8.742167 -9.917304 -11.598250 6.928665 -27.249984 0.576773 17.019291 -27.605380 -20.458084 4.762360 -7.420105 -16.108535 -6.300745 -8.350528 2.827331 -4.907390 -22.749671 -0.197532 -19.129847 -43.186184 28.275525 -23.226155 -6.748297 28.222843 -0.244470 -34.647908 0.378696 -19.099469 64.133289 -17.623800 2.115029 11.139742 9.623588 -0.004129 -0.003630 -0.001833 -6.618122 -27.137677 -9.415424 2.862586 59.607252 0.612764 -14.213570 5.936062 -3.427114 0.002481 -0.000812 0.001101
129.914250 127.200910 4.880819 -13.635427 -34.764467 -3.347380 -3.531297 18.754520 2.222857 -0.453022 2.217479 0.321239 -0.740990 3.657936 0.522707 -3.083498 16.225460 1.988991 2.398714 15.127148 -1.671932 5.102356 -7.585677 -4.012335 8.623578 -9.894152 -11.511392 6.997708 -27.256927 0.602959 17.004854 -27.677521 -20.553282 4.771376 -7.427606 -16.124161 -6.284465 -8.335256 2.804841 -4.881827 -22.731788 -0.236847 -19.103969 -43.167227 28.265928 -23.236540 -6.722798 28.197756 -0.262645 -34.642475 0.397210 -19.132121 64.120930 -17.645114 2.131804 11.144731 9.616121 0.000450 -0.003976 0.000200 -6.632642 -27.139245 -9.399629 2.862209 59.613435 0.618921 -14.201180 5.930890 -3.432182 0.003365 0.000057 0.001494
129.914392 127.202013 4.881261 -13.632066 -34.776851 -3.355933 -3.533405 18.743088 2.227966 -0.451690 2.235432 0.320214 -0.741394 3.656563 0.524216 -3.086359 16.213033 1.995590 2.405465 15.125866 -1.673953 5.131272 -7.656638 -4.004470 8.579650 -9.873175 -11.480262 6.981949 -27.261927 0.665955 16.984068 -27.750037 -20.632042 4.781201 -7.434452 -16.140774 -6.216723 -8.325618 2.743641 -4.907591 -22.710507 -0.252058 -19.082513 -43.147552 28.261091 -23.249304 -6.698518 28.167118 -0.276392 -34.627908 0.406769 -19.134452 64.117441 -17.648476 2.137472 11.147080 9.619602 0.001533 -0.005330 0.000681 -6.649237 -27.130057 -9.401686 2.887308 59.616541 0.651084 -14.192068 5.925654 -3.441702 0.000555 0.000457 0.000246
129.915385 127.202340 4.880989 -13.628966 -34.782934 -3.358515 -3.536809 18.743330 2.229406 -0.452044 2.227017 0.320992 -0.740922 3.662549 0.523395 -3.088959 16.211174 1.998324 2.413150 15.113220 -1.672587 5.165603 -7.738289 -4.000753 8.450202 -9.875193 -11.389254 7.061551 -27.273239 0.678312 16.966077 -27.829933 -20.698639 4.788677 -7.427143 -16.149739 -6.143115 -8.328066 2.683025 -4.935949 -22.687624 -0.267187 -19.064021 -43.135082 28.258479 -23.263279 -6.677139 28.126286 -0.302543 -34.617814 0.417868 -19.119622 64.112456 -17.647507 2.139434 11.146404 9.629883 0.000534 -0.004837 0.000237 -6.652274 -27.126149 -9.406427 2.886845 59.619392 0.658645 -14.180921 5.923789 -3.439801 0.000142 0.001237 0.000063
